<?xml version="1.0" encoding="UTF-8"?>
<!DOCTYPE svg PUBLIC "-//W3C//DTD SVG 1.1//EN" "http://www.w3.org/Graphics/SVG/1.1/DTD/svg11.dtd">
<!-- Creator: CorelDRAW X7 -->
<svg xmlns="http://www.w3.org/2000/svg" xml:space="preserve" width="1.5748in" height="1.5748in" version="1.1" style="shape-rendering:geometricPrecision; text-rendering:geometricPrecision; image-rendering:optimizeQuality; fill-rule:evenodd; clip-rule:evenodd"
viewBox="0 0 1575 1575"
 xmlns:xlink="http://www.w3.org/1999/xlink">
 <defs>
  <style type="text/css">
   <![CDATA[
    .str0 {stroke:black;stroke-width:6.94488}
    .fil2 {fill:black}
    .fil1 {fill:black}
    .fil0 {fill:#E5ECFF}
   ]]>
  </style>
 </defs>
 <g id="Layer_x0020_2">
  <metadata id="CorelCorpID_0Corel-Layer"/>
  <circle class="fil0 str0" cx="436" cy="665" r="250"/>
  <circle class="fil0 str0" cx="1122" cy="665" r="250"/>
  <path class="fil1" d="M436 395c149,0 270,121 270,270 0,149 -121,270 -270,270 -150,0 -271,-121 -271,-270 0,-149 121,-270 271,-270zm0 36c129,0 233,105 233,234 0,129 -104,234 -233,234 -129,0 -234,-105 -234,-234 0,-129 105,-234 234,-234z"/>
  <path class="fil1" d="M1121 395c149,0 270,121 270,270 0,149 -121,270 -270,270 -149,0 -271,-121 -271,-270 0,-149 122,-270 271,-270zm0 36c129,0 233,105 233,234 0,129 -104,234 -233,234 -129,0 -234,-105 -234,-234 0,-129 105,-234 234,-234z"/>
  <path class="fil1" d="M779 548c39,0 75,8 108,22 -3,15 -8,26 -14,34 -29,-12 -60,-19 -94,-19 -37,0 -72,8 -103,24 -5,-12 -9,-24 -12,-35 35,-17 74,-26 115,-26z"/>
  <path class="fil1" d="M1254 528c15,14 28,31 36,50 -7,5 -13,7 -19,9 -7,-16 -18,-31 -31,-44 -16,-14 -34,-24 -53,-30 3,-6 6,-13 9,-19 21,7 40,18 58,34z"/>
  <path class="fil1" d="M771 977c-38,0 -74,-8 -107,-22 -16,-23 -11,-33 14,-34 28,12 60,19 93,19 38,0 73,-9 104,-24 28,-1 32,12 12,35 -35,17 -74,26 -116,26z"/>
  <polygon class="fil1" points="773,1321 1455,1338 771,1338 90,1338 "/>
  <rect class="fil1" transform="matrix(1.95637 0.90414 -0.770178 2.29665 130.422 578.871)" width="33.8543" height="17.7087" rx="9" ry="9"/>
  <rect class="fil1" transform="matrix(-1.95637 0.90414 0.770178 2.29665 1425.26 578.871)" width="33.8543" height="17.7087" rx="9" ry="9"/>
  <path class="fil2" d="M430 1247c-15,-3 -21,-6 -21,-14 0,-8 7,-13 20,-13 12,0 20,5 25,10l6 -13c-12,-10 -27,-11 -31,-11 -22,0 -34,12 -34,28 0,13 7,22 34,27 13,2 22,7 22,14 0,10 -8,15 -22,15 -12,0 -23,-5 -30,-14l-7 13c1,1 13,15 36,15 23,0 37,-12 37,-29 0,-16 -12,-24 -35,-28l0 0zm92 -42l-45 98 14 0 10 -21 0 0 21 -47 22 47 0 0 9 21 15 0 -46 -98zm104 16l0 -14 -64 0 0 14 64 0zm-25 82l0 -75 -14 0 0 75 14 0zm82 -34c15,-4 23,-16 23,-31 0,-18 -12,-31 -37,-31l-29 0 0 14 34 0c10,0 18,5 18,18 0,12 -8,17 -18,17l-34 0 0 47 13 0 0 -33 15 0 24 33 16 0 -25 -34zm59 34l0 -96 -14 0 0 96 14 0zm62 -98l-46 98 15 0 9 -21 0 0 22 -47 21 47 0 0 10 21 14 0 -45 -98zm125 2l0 61c0,13 -5,22 -18,22 -6,0 -11,-3 -13,-6l-7 11c3,5 12,9 20,9 19,0 32,-12 32,-38l0 -59 -14 0zm71 -2l-45 98 14 0 10 -21 0 0 21 -47 22 47 0 0 9 21 15 0 -46 -98zm105 2l-22 38 8 12 29 -50 -15 0zm-67 0l35 57 0 39 13 0 0 -39 -32 -57 -16 0zm121 -2l-46 98 15 0 9 -21 0 0 22 -47 21 47 0 0 10 21 14 0 -45 -98z"/>
  <path class="fil2" d="M541 1409c0,-13 3,-24 9,-33 7,-9 16,-13 27,-13 13,0 22,4 29,12 7,8 10,19 10,34 0,15 -3,26 -10,35 -7,8 -17,12 -29,12 -11,0 -20,-4 -27,-13 -6,-9 -9,-20 -9,-34zm13 0c0,10 2,19 6,26 4,7 10,10 17,10 8,0 15,-3 19,-9 5,-7 7,-16 7,-27 0,-24 -9,-35 -26,-35 -8,0 -13,3 -17,9 -4,6 -6,15 -6,26zm127 11l0 35 -13 0 0 -91c9,0 15,0 17,0 26,0 40,9 40,26 0,20 -12,31 -35,31 -2,0 -5,-1 -9,-1zm0 -45l0 34c5,0 8,0 8,0 15,0 23,-6 23,-18 0,-11 -8,-16 -25,-16 -1,0 -4,0 -6,0zm129 0l0 80 -13 0 0 -80 -28 0 0 -11 71 0 0 11 -30 0zm80 80l0 -91 13 0 0 91 -13 0zm122 0l-26 -42 -12 17 0 25 -12 0 0 -91 12 0 0 50 34 -50 13 0 -27 40 31 51 -13 0z"/>
  <path class="fil1" d="M389 195l812 0 0 172c-6,-2 -12,-4 -18,-5l0 -146 -776 0 0 139c0,0 -10,1 -18,4l0 -164zm812 740l0 194 -812 0 0 -187c4,2 10,3 18,3l0 163 776 0 0 -170c5,-1 11,-1 18,-3z"/>
  <path class="fil1" d="M785 486c26,0 51,3 74,9 46,-95 143,-161 256,-161 26,0 52,3 76,10l0 20c-24,-7 -50,-11 -76,-11 -104,0 -194,60 -237,148 -4,9 -2,4 -8,17l-19 -5c-80,-22 -144,3 -144,3l-18 6 -7 -17c-42,-90 -134,-152 -240,-152 -16,0 -31,1 -47,4 1,-7 1,-13 1,-19 15,-3 30,-4 46,-4 115,0 213,67 258,165 27,-9 55,-13 85,-13z"/>
 </g>
</svg>
